<svg xmlns="http://www.w3.org/2000/svg" xmlns:xlink="http://www.w3.org/1999/xlink" width="54" height="36" viewBox="0 0 54 36" fill="none">
<ellipse cx="27" cy="18" rx="27" ry="18"   fill="#FFFFFF" >
</ellipse>
<path d="M53 17.9962C53 9.22052 42.7885 1.981 29.7272 1.08367C29.0069 1.03423 28.2751 1.00762 27.5354 1.00001L26.9825 1.00001C12.6637 0.988607 1 8.61976 1 17.9962C1 26.6387 10.9079 33.7909 23.6851 34.8593L23.7123 34.8593C24.7907 34.9506 25.8847 35 26.9981 35L27.5081 35C28.2517 35 28.9914 34.9658 29.7194 34.9163L29.7428 34.9163C42.7885 34.0114 53 26.7642 53 17.9962ZM16.405 3.13689C16.7267 3.39853 17.068 3.633 17.4288 3.84031C17.2945 3.92528 17.1612 4.01188 17.0291 4.10012C16.897 4.18835 16.766 4.27819 16.6362 4.36963C16.5064 4.46109 16.3777 4.55411 16.2503 4.64868C16.1228 4.74329 15.9967 4.83943 15.8717 4.93712C15.7467 5.03481 15.623 5.134 15.5006 5.23469C15.3782 5.33542 15.2571 5.43762 15.1373 5.54129C15.0175 5.64499 14.899 5.75013 14.782 5.8567C14.6649 5.9633 14.5492 6.07131 14.4349 6.18071C14.3205 6.29013 14.2076 6.40094 14.0961 6.5131C13.9847 6.62532 13.8746 6.73885 13.7661 6.85369C13.6575 6.96859 13.5505 7.08479 13.4449 7.20231C13.3393 7.31983 13.2353 7.43861 13.1327 7.55864C13.0302 7.67868 12.9293 7.79997 12.8299 7.92253C12.7304 8.04508 12.6326 8.16879 12.5364 8.2937C12.4401 8.41862 12.3456 8.54469 12.2526 8.67191C12.1596 8.79919 12.0682 8.92757 11.9785 9.05704C11.1617 8.91193 10.352 8.73555 9.5494 8.52801C8.74682 8.32046 7.95391 8.08238 7.17057 7.81367C7.34101 7.68051 7.51306 7.54946 7.68684 7.4204C7.86061 7.29139 8.03594 7.16449 8.21288 7.03962C8.38982 6.91487 8.56832 6.79215 8.74838 6.67159C8.92838 6.55108 9.10989 6.43273 9.2929 6.31657C9.47592 6.20041 9.66038 6.08643 9.84624 5.97469C10.0321 5.86295 10.2194 5.75345 10.408 5.64621C10.5967 5.53895 10.7866 5.43397 10.9779 5.33128C11.1692 5.22859 11.3617 5.12821 11.5555 5.03014C11.7493 4.93207 11.9443 4.83634 12.1405 4.74295C12.3367 4.64957 12.5341 4.55855 12.7326 4.46988C12.9311 4.38126 13.1307 4.29501 13.3314 4.21113C13.532 4.12728 13.7337 4.04584 13.9365 3.96682C14.1392 3.88781 14.3429 3.81124 14.5475 3.73711C14.7522 3.66298 14.9577 3.59132 15.1642 3.52213C15.3706 3.45294 15.5779 3.38623 15.786 3.32202C15.9942 3.2578 16.2031 3.19609 16.4127 3.13689L16.405 3.13689ZM32.063 4.76425C31.6676 4.85579 31.2702 4.93774 30.8707 5.0101C30.4711 5.08247 30.07 5.14516 29.6673 5.19818C29.2646 5.25117 28.8608 5.29443 28.4559 5.32797C28.0511 5.36152 27.6456 5.38528 27.2395 5.39927L27.2395 1.63499L27.4691 1.63499C27.9247 1.68822 29.9841 2.04944 32.0708 4.76425L32.063 4.76425ZM29.6921 1.72245C29.9279 1.76885 30.1627 1.8196 30.3965 1.87469C30.6303 1.92979 30.8629 1.98919 31.0944 2.0529C31.3258 2.1166 31.556 2.18457 31.7848 2.25679C32.0137 2.32902 32.241 2.40545 32.4669 2.48609C32.6928 2.56674 32.9171 2.65153 33.1397 2.74046C33.3622 2.82941 33.583 2.92244 33.802 3.01955C34.021 3.11666 34.238 3.21779 34.453 3.32294C34.6681 3.42808 34.8811 3.53717 35.0919 3.6502C34.72 3.84286 34.3389 4.01608 33.9485 4.16986C33.5582 4.32364 33.1607 4.45713 32.756 4.57035C32.6566 4.42713 32.5533 4.2866 32.4462 4.14877C32.339 4.01095 32.2282 3.87603 32.1137 3.74401C31.9991 3.612 31.881 3.48308 31.7594 3.35724C31.6378 3.23141 31.5128 3.10885 31.3845 2.98956C31.2562 2.87028 31.1246 2.75443 30.9899 2.64204C30.8552 2.52964 30.7175 2.42085 30.5768 2.31566C30.4361 2.21047 30.2926 2.10905 30.1464 2.01137C30.0001 1.9137 29.8513 1.81993 29.6999 1.73005L29.6921 1.72245ZM26.5777 5.38783C26.1708 5.37549 25.7644 5.35335 25.3586 5.32141C24.9529 5.28949 24.5482 5.24781 24.1445 5.19639C23.7408 5.14498 23.3387 5.08386 22.9381 5.01304C22.5375 4.94225 22.1389 4.86186 21.7424 4.77186C22.0641 4.35812 22.4158 3.97029 22.7974 3.60837C22.9065 3.50434 23.0181 3.40297 23.1322 3.30427C23.2464 3.20557 23.3629 3.10965 23.4818 3.01652C23.6008 2.92339 23.722 2.83316 23.8454 2.74582C23.9689 2.65849 24.0945 2.57415 24.2222 2.49282C24.3498 2.41149 24.4795 2.33325 24.6111 2.25812C24.7427 2.18298 24.8761 2.11104 25.0114 2.04228C25.1466 1.97352 25.2834 1.90803 25.422 1.84582C25.5604 1.78361 25.7004 1.72474 25.8419 1.66921L26.5777 1.66921L26.5777 5.38783ZM22.338 3.1559C22.1045 3.37904 21.8809 3.61122 21.667 3.85244C21.4532 4.09367 21.2499 4.34312 21.0572 4.60078C20.6666 4.49568 20.2808 4.37553 19.9 4.24035C19.5192 4.10515 19.1444 3.95533 18.7759 3.79088C18.9767 3.67538 19.1797 3.56364 19.3849 3.45567C19.5901 3.3477 19.7974 3.24359 20.0066 3.14331C20.2158 3.04303 20.427 2.94668 20.64 2.85425C20.8529 2.76182 21.0677 2.67337 21.2841 2.58891C21.5006 2.50445 21.7185 2.42403 21.9381 2.34767C22.1577 2.2713 22.3787 2.19904 22.601 2.13088C22.8234 2.06272 23.0471 1.99871 23.2719 1.93886C23.4968 1.879 23.7227 1.82334 23.9498 1.77187L24.2145 1.74906C23.8763 1.94914 23.5503 2.16678 23.2366 2.40197C22.9229 2.63715 22.6234 2.88847 22.338 3.1559ZM18.079 3.44868C17.772 3.28612 17.4761 3.10615 17.1914 2.90876C18.3462 2.59762 19.5141 2.34413 20.6952 2.1483C20.2441 2.33488 19.8003 2.53666 19.3637 2.75365C18.9272 2.97065 18.4989 3.20233 18.079 3.44868ZM18.079 4.20914C18.4898 4.40927 18.9091 4.59062 19.337 4.75319C19.7648 4.91579 20.1994 5.05889 20.6407 5.18249C20.5201 5.36608 20.4031 5.55183 20.2897 5.73976C20.1763 5.92765 20.0667 6.1176 19.9607 6.3096C19.8547 6.50161 19.7526 6.69546 19.6542 6.89126C19.5557 7.08705 19.4612 7.28463 19.3705 7.48388C19.2798 7.68319 19.1929 7.88412 19.1101 8.08663C19.0272 8.28919 18.9483 8.49317 18.8733 8.69862C18.7984 8.90411 18.7275 9.11087 18.6606 9.31894C18.5937 9.52706 18.5309 9.73634 18.4722 9.94677C16.1948 9.74904 14.2716 9.48289 12.6832 9.18631C12.7728 9.0615 12.864 8.9378 12.9568 8.81524C13.0497 8.69269 13.144 8.57129 13.24 8.45104C13.336 8.3308 13.4335 8.21176 13.5325 8.09393C13.6315 7.97609 13.7321 7.85952 13.8341 7.74415C13.9362 7.62884 14.0397 7.51473 14.1447 7.40193C14.2497 7.28914 14.3562 7.1776 14.464 7.06743C14.5719 6.95726 14.6811 6.84845 14.7919 6.74095C14.9026 6.6335 15.0146 6.52737 15.1281 6.42266C15.2415 6.31794 15.3563 6.2146 15.4723 6.11272C15.5884 6.01084 15.7058 5.91039 15.8246 5.81137C15.9432 5.71239 16.0632 5.61488 16.1844 5.51883C16.3056 5.42276 16.4281 5.32822 16.5517 5.23522C16.6754 5.14218 16.8003 5.05069 16.9263 4.96073C17.0523 4.87078 17.1794 4.78239 17.3078 4.69558C17.4361 4.60877 17.5655 4.52355 17.696 4.43993C17.8265 4.3563 17.9581 4.2743 18.0907 4.19393L18.079 4.20914ZM21.3103 5.3498C21.7405 5.45224 22.1732 5.54358 22.6084 5.62381C23.0436 5.70401 23.4806 5.77302 23.9195 5.83084C24.3584 5.88862 24.7985 5.9351 25.2399 5.97028C25.6813 6.00547 26.1233 6.02932 26.566 6.04184L26.566 10.2776C23.7746 10.2776 21.3064 10.1597 19.1418 9.98858C19.2007 9.78277 19.2637 9.57816 19.3309 9.37471C19.398 9.17131 19.4693 8.96927 19.5446 8.76855C19.6198 8.56793 19.6992 8.36878 19.7825 8.1711C19.8658 7.97352 19.9531 7.77757 20.0444 7.58325C20.1356 7.38903 20.2306 7.19659 20.3296 7.00594C20.4286 6.81534 20.5314 6.62674 20.638 6.44007C20.7446 6.25341 20.8549 6.06888 20.969 5.88645C21.083 5.70405 21.2007 5.52391 21.3219 5.34602L21.3103 5.3498ZM27.2395 6.04184C27.6814 6.0275 28.1226 6.00181 28.5631 5.96477C29.0037 5.9277 29.4429 5.87933 29.8808 5.81966C30.3188 5.75995 30.7547 5.68902 31.1888 5.60687C31.6229 5.52471 32.0544 5.43143 32.4835 5.32703C32.7199 5.68109 32.9441 6.04242 33.1561 6.41101C33.368 6.77961 33.5673 7.15462 33.7538 7.53614C33.9403 7.91765 34.1137 8.30472 34.2739 8.69736C34.4341 9.0901 34.5809 9.48756 34.7143 9.88974C32.4056 10.1179 29.8829 10.2699 27.2395 10.2699L27.2395 6.04184ZM33.1609 5.1369C33.3884 5.06926 33.6138 4.99538 33.8371 4.91524C34.0604 4.83508 34.2811 4.74878 34.4993 4.65634C34.7175 4.56393 34.9329 4.46553 35.1454 4.36113C35.3578 4.2567 35.5671 4.14647 35.7732 4.03043C35.9079 4.1076 36.0415 4.18655 36.1741 4.26727C36.3066 4.348 36.438 4.43047 36.5682 4.51469C36.6985 4.59894 36.8275 4.6849 36.9553 4.77254C37.0832 4.86019 37.2098 4.94954 37.3351 5.04058C37.4604 5.13159 37.5845 5.22425 37.7072 5.31858C37.83 5.41295 37.9514 5.5089 38.0715 5.60645C38.1915 5.704 38.3103 5.80314 38.4276 5.90387C38.5449 6.00459 38.6608 6.10686 38.7752 6.21067C38.8897 6.31448 39.0027 6.41977 39.1142 6.52658C39.2257 6.6334 39.3358 6.74168 39.4443 6.85139C39.5528 6.96114 39.6597 7.07231 39.7651 7.18489C39.8705 7.29748 39.9743 7.41148 40.0766 7.5268C40.1788 7.64216 40.2793 7.75884 40.3783 7.87683C40.4773 7.99487 40.5746 8.11423 40.6702 8.23479C40.7658 8.35545 40.8598 8.47733 40.952 8.6004C41.0443 8.72354 41.1347 8.84787 41.2235 8.97337C39.5378 9.28516 37.564 9.58556 35.3838 9.82128C35.2494 9.41007 35.1018 9.00343 34.9413 8.60124C34.7807 8.19911 34.6073 7.80228 34.4211 7.41075C34.235 7.01922 34.0365 6.63377 33.8256 6.25441C33.6147 5.87508 33.3918 5.50257 33.157 5.1369L33.1609 5.1369ZM36.3961 3.6502C36.5946 3.52092 36.7854 3.39925 36.9333 3.26997C37.0812 3.1407 37.1825 3.09887 37.2915 3.02662C37.5023 3.08445 37.7124 3.14476 37.9218 3.20756C38.1312 3.27036 38.3397 3.33564 38.5475 3.40338C38.7552 3.47112 38.9621 3.54132 39.1681 3.61396C39.3741 3.68661 39.5791 3.76169 39.7833 3.83919C39.9874 3.9167 40.1906 3.99661 40.3927 4.07892C40.5949 4.16124 40.7959 4.24594 40.996 4.33301C41.1961 4.4201 41.395 4.50955 41.5928 4.60136C41.7906 4.69317 41.9873 4.78729 42.1828 4.88371C42.3783 4.98018 42.5725 5.07895 42.7655 5.18003C42.9585 5.28107 43.1503 5.38441 43.3408 5.49003C43.5312 5.59562 43.7204 5.70347 43.9081 5.81357C44.0959 5.92364 44.2823 6.03593 44.4673 6.15044C44.6523 6.26495 44.8358 6.38163 45.0179 6.50046C45.2 6.61934 45.3806 6.74032 45.5597 6.86345C45.7388 6.98658 45.9163 7.11181 46.0923 7.23914C46.2683 7.36652 46.4427 7.4959 46.6155 7.62737C45.8483 7.87972 45.073 8.10515 44.2895 8.30373C43.506 8.50235 42.7163 8.67359 41.9204 8.8175C41.831 8.68707 41.7398 8.55786 41.6468 8.42985C41.5539 8.30184 41.4592 8.17509 41.3626 8.04959C41.2661 7.9241 41.1679 7.79992 41.0679 7.67705C40.9679 7.55418 40.8663 7.43268 40.7629 7.31248C40.6596 7.19234 40.5546 7.07351 40.448 6.9561C40.3413 6.83874 40.233 6.7228 40.1232 6.60827C40.0133 6.4938 39.9018 6.38074 39.7888 6.26915C39.6758 6.15763 39.5612 6.0476 39.4451 5.93906C39.329 5.83057 39.2115 5.72363 39.0924 5.61825C38.9733 5.51284 38.8528 5.40905 38.7309 5.30688C38.6089 5.20468 38.4855 5.10413 38.3607 5.00522C38.236 4.90631 38.1099 4.80906 37.9824 4.71347C37.8549 4.61792 37.7262 4.52408 37.5961 4.43195C37.466 4.3398 37.3347 4.24939 37.2021 4.16073C37.0695 4.07207 36.9357 3.98519 36.8007 3.90009C36.6657 3.81498 36.5295 3.73169 36.3921 3.6502L36.3961 3.6502ZM36.4661 2.8099C36.2637 2.95058 36.0301 3.10647 35.7615 3.27377C34.9953 2.84582 34.205 2.46559 33.3906 2.13309C34.4456 2.33841 35.4695 2.56275 36.4661 2.8099ZM37.5251 32.6046C37.3109 32.46 37.0656 32.2928 36.7698 32.114C36.9013 32.0277 37.0317 31.9396 37.1609 31.8499C37.2901 31.7602 37.4181 31.6688 37.5449 31.5758C37.6717 31.4828 37.7973 31.3883 37.9215 31.2921C38.0458 31.196 38.1687 31.0983 38.2904 30.999C38.412 30.8997 38.5324 30.7989 38.6514 30.6966C38.7703 30.5943 38.8879 30.4904 39.0041 30.3851C39.1203 30.2798 39.2351 30.173 39.3485 30.0648C39.4619 29.9566 39.5738 29.8469 39.6843 29.7359C39.7947 29.6248 39.9036 29.5123 40.0111 29.3985C40.1186 29.2847 40.2245 29.1695 40.3289 29.0529C40.4333 28.9364 40.5362 28.8186 40.6374 28.6994C40.7387 28.5804 40.8384 28.46 40.9364 28.3382C41.0344 28.2166 41.1308 28.0937 41.2257 27.9696C41.3205 27.8455 41.4136 27.7202 41.505 27.5937C41.5965 27.4672 41.6862 27.3396 41.7743 27.2108C41.8623 27.0821 41.9487 26.9522 42.0333 26.8213C42.8893 26.9495 43.7396 27.1072 44.5842 27.2944C45.4288 27.4816 46.2654 27.6978 47.0943 27.9429C46.924 28.0809 46.7518 28.2168 46.5779 28.3505C46.404 28.4843 46.2285 28.6159 46.0512 28.7452C45.8738 28.8747 45.6949 29.0019 45.5144 29.1269C45.3338 29.2518 45.1516 29.3746 44.9679 29.4951C44.7841 29.6156 44.5988 29.7338 44.412 29.8497C44.2252 29.9656 44.037 30.0792 43.8472 30.1905C43.6575 30.3018 43.4663 30.4107 43.2737 30.5172C43.0811 30.6239 42.8872 30.728 42.692 30.8298C42.4967 30.9315 42.3001 31.0309 42.1023 31.1278C41.9045 31.2248 41.7055 31.3192 41.5051 31.4112C41.3049 31.5032 41.1035 31.5927 40.9009 31.6798C40.6983 31.7669 40.4946 31.8514 40.2898 31.9334C40.085 32.0154 39.8793 32.0949 39.6724 32.1718C39.4655 32.2487 39.2578 32.3231 39.049 32.3949C38.8402 32.4667 38.6306 32.5359 38.42 32.6026C38.2095 32.6692 37.9981 32.7332 37.7859 32.7946L37.5251 32.6046ZM36.1391 31.7566C35.918 31.6447 35.6939 31.539 35.4668 31.4393C35.2396 31.3397 35.0098 31.2464 34.7773 31.1593C34.5448 31.0724 34.3099 30.9918 34.0728 30.9176C33.8356 30.8435 33.5966 30.7758 33.3556 30.7148C33.5871 30.3477 33.8058 29.9736 34.0116 29.5923C34.2175 29.211 34.4102 28.8233 34.5896 28.4294C34.7689 28.0355 34.9346 27.6362 35.0866 27.2315C35.2386 26.8268 35.3766 26.4175 35.5007 26.0038C37.6769 26.1977 39.6429 26.4486 41.3403 26.7148C41.2561 26.8407 41.1702 26.9655 41.0826 27.0891C40.995 27.2128 40.9058 27.3354 40.815 27.4568C40.7242 27.5782 40.6317 27.6984 40.5376 27.8175C40.4435 27.9366 40.3479 28.0544 40.2507 28.171C40.1534 28.2876 40.0546 28.4029 39.9543 28.517C39.8541 28.6311 39.7522 28.7439 39.6489 28.8554C39.5456 28.9669 39.4408 29.077 39.3345 29.1858C39.2282 29.2946 39.1205 29.402 39.0113 29.5081C38.9022 29.6141 38.7916 29.7188 38.6796 29.822C38.5677 29.9253 38.4543 30.027 38.3396 30.1273C38.2249 30.2277 38.109 30.3265 37.9916 30.4239C37.8743 30.5213 37.7557 30.6171 37.6358 30.7115C37.5158 30.8058 37.3947 30.8986 37.2723 30.9898C37.1499 31.0811 37.0264 31.1708 36.9016 31.2589C36.7768 31.347 36.6508 31.4335 36.5238 31.5183C36.3967 31.6032 36.2684 31.6864 36.1391 31.768L36.1391 31.7566ZM22.7974 32.365C22.4718 32.0521 22.1681 31.72 21.8865 31.3688C22.2681 31.2695 22.6521 31.1798 23.0385 31.0999C23.4248 31.0199 23.8131 30.9498 24.2032 30.8895C24.5933 30.8291 24.9847 30.7787 25.3775 30.7382C25.7702 30.6976 26.1638 30.667 26.5582 30.6464L26.5582 34.3688L25.7796 34.3688C25.6409 34.3092 25.5038 34.2466 25.3681 34.1808C25.2325 34.1151 25.0985 34.0463 24.9661 33.9744C24.8337 33.9026 24.7031 33.8278 24.5743 33.75C24.4455 33.6722 24.3186 33.5916 24.1936 33.5081C24.0686 33.4246 23.9457 33.3383 23.8248 33.2492C23.7038 33.1601 23.5851 33.0684 23.4686 32.9739C23.3521 32.8795 23.2379 32.7824 23.126 32.6827C23.014 32.5831 22.9045 32.481 22.7974 32.3764L22.7974 32.365ZM24.2029 34.2471L23.7746 34.2091C23.5655 34.1679 23.3573 34.1226 23.1499 34.0733C22.9426 34.024 22.7364 33.9708 22.5313 33.9135C22.3261 33.8563 22.1222 33.7951 21.9195 33.73C21.7168 33.6649 21.5155 33.5959 21.3156 33.523C21.1157 33.4502 20.9174 33.3735 20.7206 33.2929C20.5238 33.2124 20.3287 33.1281 20.1354 33.04C19.942 32.952 19.7505 32.8603 19.5608 32.7648C19.3711 32.6694 19.1834 32.5703 18.9978 32.4676C19.3542 32.2897 19.7177 32.1268 20.0881 31.9789C20.4586 31.831 20.8349 31.6986 21.2169 31.5817C21.3862 31.807 21.5645 32.0253 21.7517 32.2366C21.9388 32.4479 22.1343 32.6517 22.338 32.8479C22.6222 33.1149 22.92 33.3663 23.2317 33.602C23.5434 33.8379 23.8671 34.0567 24.2029 34.2585L24.2029 34.2471ZM27.2395 30.6274L27.6288 30.6274C28.4038 30.6496 29.1764 30.7039 29.9467 30.7902C30.717 30.8766 31.4821 30.9947 32.2421 31.1444C30.1126 33.9087 27.8819 34.3003 27.438 34.3688L27.2395 34.3688L27.2395 30.6274ZM32.974 31.2928C33.4066 31.3965 33.8328 31.5214 34.2523 31.6676C34.6719 31.8138 35.0828 31.9803 35.4851 32.1673C35.264 32.2973 35.0401 32.4222 34.8131 32.5421C34.5861 32.6619 34.3565 32.7765 34.124 32.8859C33.8916 32.9953 33.6566 33.0994 33.4193 33.1981C33.1819 33.2968 32.9423 33.3901 32.7004 33.4779C32.4586 33.5657 32.2148 33.648 31.969 33.7247C31.7233 33.8014 31.4758 33.8725 31.2267 33.938C30.9775 34.0035 30.7269 34.0633 30.475 34.1173C30.223 34.1714 29.9698 34.2197 29.7155 34.2623C29.8775 34.1707 30.0368 34.0747 30.1933 33.9743C30.3497 33.8738 30.5032 33.7692 30.6536 33.6603C30.8039 33.5514 30.951 33.4384 31.0949 33.3213C31.2387 33.2043 31.3791 33.0833 31.5159 32.9585C31.6527 32.8337 31.7857 32.7051 31.9151 32.5729C32.0445 32.4407 32.1699 32.305 32.2914 32.1659C32.4128 32.0268 32.5302 31.8843 32.6434 31.7387C32.7566 31.5931 32.8656 31.4444 32.9701 31.2928L32.974 31.2928ZM32.6548 30.5665C32.2417 30.4796 31.8268 30.4019 31.4101 30.3335C30.9933 30.2651 30.5752 30.2059 30.1557 30.1561C29.7362 30.1063 29.3158 30.0658 28.8944 30.0347C28.4731 30.0036 28.0512 29.9819 27.6288 29.9695L27.2395 29.9695L27.2395 25.6235L27.2823 25.6235C29.9647 25.6235 32.5108 25.7452 34.8349 25.9353C34.7728 26.1397 34.707 26.3428 34.6375 26.5448C34.568 26.7469 34.4948 26.9476 34.418 27.1471C34.3412 27.3466 34.2608 27.5447 34.1767 27.7414C34.0927 27.938 34.0051 28.1332 33.9139 28.3269C33.8228 28.5205 33.7281 28.7125 33.6299 28.9028C33.5318 29.0932 33.4302 29.2818 33.3252 29.4686C33.2201 29.6554 33.1118 29.8403 33 30.0234C32.8882 30.2065 32.7732 30.3875 32.6548 30.5665ZM26.5777 30.0152C26.1456 30.0358 25.7145 30.0683 25.2843 30.1125C24.8542 30.1568 24.4256 30.2127 23.9986 30.2804C23.5716 30.3481 23.147 30.4273 22.7245 30.5181C22.3021 30.609 21.8826 30.7113 21.466 30.825C21.335 30.639 21.2077 30.4504 21.0843 30.2594C20.9608 30.0684 20.8412 29.8751 20.7255 29.6796C20.6098 29.484 20.4981 29.2863 20.3903 29.0865C20.2825 28.8866 20.1788 28.6848 20.0791 28.481C19.9794 28.2772 19.8838 28.0716 19.7923 27.8641C19.7009 27.6567 19.6137 27.4475 19.5306 27.2367C19.4475 27.0259 19.3687 26.8137 19.2942 26.5998C19.2196 26.386 19.1493 26.1709 19.0834 25.9544C21.2636 25.768 23.7551 25.6426 26.5777 25.6274L26.5777 30.0152ZM20.8081 31.0228C20.3773 31.1603 19.9545 31.3181 19.5396 31.4959C19.1246 31.6738 18.7195 31.871 18.3243 32.0874C18.1845 32.0038 18.0459 31.9183 17.9085 31.831C17.7711 31.7437 17.635 31.6545 17.5001 31.5635C17.3652 31.4725 17.2316 31.3797 17.0993 31.2852C16.967 31.1906 16.8361 31.0943 16.7065 30.9962C16.5769 30.8982 16.4487 30.7984 16.3219 30.6969C16.1951 30.5955 16.0698 30.4923 15.9459 30.3874C15.822 30.2826 15.6996 30.1761 15.5787 30.068C15.4578 29.9598 15.3384 29.8501 15.2206 29.7387C15.1028 29.6275 14.9866 29.5146 14.8719 29.4001C14.7573 29.2857 14.6442 29.1698 14.5328 29.0523C14.4214 28.9349 14.3117 28.8159 14.2036 28.6955C14.0956 28.5752 13.9892 28.4533 13.8846 28.3301C13.7799 28.2068 13.677 28.0822 13.5759 27.9562C13.4747 27.8302 13.3754 27.7029 13.2778 27.5742C13.1802 27.4456 13.0845 27.3156 12.9905 27.1844C12.8966 27.0532 12.8045 26.9207 12.7143 26.7871C14.2716 26.5019 16.1753 26.2243 18.4138 26.0266C18.4806 26.248 18.5515 26.468 18.6268 26.6867C18.702 26.9055 18.7815 27.1228 18.8652 27.3386C18.9489 27.5544 19.0367 27.7685 19.1287 27.9811C19.2207 28.1936 19.3167 28.4044 19.4169 28.6134C19.5171 28.8224 19.6212 29.0295 19.7294 29.2346C19.8376 29.4398 19.9497 29.6428 20.0657 29.8438C20.1818 30.0449 20.3017 30.2437 20.4255 30.4402C20.5492 30.6368 20.6768 30.831 20.8081 31.0228ZM17.6936 32.4486C17.4265 32.6182 17.1735 32.8057 16.9344 33.0113C16.7135 32.9528 16.4934 32.8915 16.2741 32.8275C16.0547 32.7635 15.8363 32.6967 15.6187 32.6272C15.4011 32.5577 15.1845 32.4856 14.9688 32.4106C14.7531 32.3358 14.5384 32.2582 14.3247 32.178C14.1111 32.0978 13.8985 32.0149 13.687 31.9293C13.4755 31.8438 13.2651 31.7556 13.0559 31.6649C12.8467 31.5741 12.6387 31.4808 12.432 31.3848C12.2252 31.2889 12.0197 31.1904 11.8155 31.0893C11.6114 30.9882 11.4085 30.8846 11.207 30.7785C11.0055 30.6724 10.8055 30.5638 10.6068 30.4527C10.4082 30.3415 10.211 30.228 10.0153 30.112C9.81965 29.9959 9.62552 29.8775 9.43294 29.7566C9.24037 29.6358 9.04935 29.5125 8.86 29.3869C8.67065 29.2613 8.48291 29.1334 8.29689 29.0031C8.11087 28.8728 7.92657 28.7402 7.74399 28.6053C7.56141 28.4704 7.38065 28.3333 7.20167 28.1939C7.98421 27.921 8.77642 27.6782 9.57835 27.4656C10.3802 27.253 11.1894 27.0712 12.0058 26.9201C12.097 27.0591 12.19 27.1968 12.285 27.3333C12.3799 27.4698 12.4768 27.6051 12.5755 27.739C12.6742 27.8729 12.7748 28.0055 12.8772 28.1367C12.9797 28.268 13.0839 28.3979 13.19 28.5264C13.296 28.6549 13.4038 28.782 13.5134 28.9076C13.6229 29.0332 13.7342 29.1573 13.8473 29.28C13.9603 29.4027 14.0751 29.5239 14.1915 29.6435C14.3079 29.7631 14.4259 29.8812 14.5456 29.9977C14.6652 30.1142 14.7865 30.2291 14.9094 30.3423C15.0323 30.4556 15.1568 30.5672 15.2828 30.6772C15.4087 30.7872 15.5363 30.8955 15.6652 31.002C15.7943 31.1086 15.9247 31.2135 16.0566 31.3166C16.1885 31.4197 16.3219 31.5211 16.4566 31.6207C16.5914 31.7203 16.7275 31.8181 16.8649 31.914C17.0024 32.01 17.1412 32.1042 17.2812 32.1964C17.4213 32.2887 17.5627 32.3791 17.7053 32.4676L17.6936 32.4486ZM17.7169 33.2091C17.8766 33.095 18.0751 32.9619 18.3243 32.8289C18.9277 33.1715 19.548 33.4821 20.1852 33.7604C19.3521 33.6058 18.5332 33.4284 17.7286 33.2281L17.7169 33.2091ZM36.143 32.5057C36.47 32.6882 36.7387 32.8859 36.9722 33.0228C35.9016 33.3194 34.7882 33.5703 33.6475 33.7832C34.0806 33.6025 34.5064 33.4063 34.9249 33.195C35.3433 32.9837 35.7532 32.7577 36.1547 32.5171L36.143 32.5057ZM47.6434 27.4448C46.8646 27.1178 45.0076 26.6502 42.3992 26.2091C42.6769 25.7505 42.9357 25.2819 43.1755 24.8033C43.4152 24.3248 43.6354 23.8377 43.8358 23.3422L43.2207 23.1102C43.0136 23.629 42.7843 24.1382 42.5327 24.6378C42.2812 25.1375 42.0083 25.6257 41.714 26.1026C39.9699 25.8251 37.9338 25.5627 35.6953 25.3422C35.8718 24.7237 36.0353 24.0646 36.1858 23.365L35.5435 23.2319C35.3838 23.9657 35.2087 24.6463 35.0218 25.2851C32.6197 25.0874 30.0036 24.962 27.2784 24.962L27.2395 24.962L27.2395 23.1369L26.5777 23.1369L26.5777 24.9848C23.6773 24.9848 21.1273 25.1254 18.8965 25.3193C18.7164 24.6676 18.5711 24.0086 18.4605 23.3422L17.8104 23.4487C17.9233 24.1141 18.0673 24.7528 18.2308 25.3498C15.895 25.5703 13.9485 25.8593 12.325 26.1635C12.0471 25.7189 11.7882 25.2639 11.5484 24.7986C11.3086 24.3333 11.0886 23.8593 10.8884 23.3764L10.2773 23.6197C10.4724 24.087 10.6849 24.5465 10.9149 24.9983C11.1449 25.4501 11.3918 25.893 11.6554 26.327C11.2285 26.405 10.8038 26.4926 10.3811 26.5899C9.9584 26.6873 9.53828 26.7941 9.12074 26.9106C8.70315 27.0271 8.28857 27.153 7.87705 27.2884C7.46552 27.4238 7.05739 27.5684 6.65274 27.7224C3.53826 24.9999 1.67736 21.6388 1.67736 17.9962L1.67736 17.7757L3.37088 17.7757L3.37088 17.1331L1.69294 17.1331C1.96158 13.8365 3.74851 10.7947 6.60606 8.29276C7.01028 8.44296 7.41782 8.58404 7.82865 8.71603C8.23947 8.84808 8.65319 8.9709 9.06977 9.08454C9.48634 9.19817 9.90532 9.30242 10.3267 9.39737C10.7481 9.49233 11.1716 9.5779 11.597 9.65397C11.2076 10.2678 10.8559 10.9015 10.542 11.5551L11.1376 11.8251C11.4815 11.1209 11.8708 10.4416 12.3055 9.78707C13.9367 10.0836 15.9339 10.3688 18.3243 10.578C18.2814 10.7414 18.2386 10.9049 18.1997 11.076L18.8421 11.2205C18.8888 11.019 18.9394 10.8403 18.99 10.6312C21.1974 10.8061 23.724 10.9201 26.5932 10.9277L26.5932 11.7795L27.2395 11.7795L27.2395 10.9201C29.9647 10.9201 32.5496 10.7528 34.9206 10.5171C35.0412 10.8973 35.1619 11.2776 35.2748 11.6768L35.9094 11.5095C35.8043 11.1292 35.6992 10.7871 35.5902 10.4449C37.8482 10.2015 39.8726 9.88591 41.6167 9.55891C41.8385 9.90427 42.0468 10.2572 42.2417 10.6176C42.4366 10.978 42.6176 11.3451 42.7846 11.7186L43.3881 11.4677C43.0796 10.7629 42.7227 10.0823 42.3174 9.42586C42.7318 9.35378 43.1444 9.27267 43.555 9.18259C43.9657 9.09251 44.3741 8.99351 44.7802 8.8856C45.1864 8.77773 45.5898 8.66105 45.9906 8.53556C46.3914 8.41007 46.7892 8.27592 47.1838 8.13306C50.1116 10.6235 51.9606 13.6654 52.2839 16.9734L50.4538 16.9734L50.4538 17.616L52.3264 17.616L52.3264 17.9962C52.3419 21.5209 50.5983 24.7832 47.6547 27.4562L47.6434 27.4448Z"   fill="#1F2B61" >
</path>
<path d="M16.1098 15.3956L17.3595 11.9736C17.3595 11.9736 12.824 11.5933 11.1928 12.4032C10.8182 12.6051 10.4493 12.8166 10.0862 13.0378C9.72311 13.2589 9.36638 13.4893 9.01593 13.7291C8.66543 13.9688 8.32175 14.2175 7.98484 14.4752C7.64794 14.7328 7.31834 14.9991 6.99601 15.2739C6.67804 15.5446 6.36743 15.8232 6.06419 16.1096C5.76094 16.3959 5.46547 16.6898 5.17776 16.9911C4.89009 17.2924 4.61057 17.6008 4.33919 17.9162C4.06782 18.2316 3.80497 18.5536 3.55063 18.8823C3.02115 19.6162 2.51896 20.5819 2.53453 21.369C2.53468 21.3924 2.53534 21.4158 2.53652 21.4392C2.53774 21.4626 2.53949 21.486 2.54179 21.5093C2.54404 21.5326 2.54683 21.5558 2.55016 21.579C2.55353 21.6022 2.55742 21.6254 2.56182 21.6484C2.56623 21.6714 2.57115 21.6943 2.57659 21.7171C2.58204 21.7399 2.588 21.7626 2.59448 21.7852C2.601 21.8077 2.608 21.8301 2.61548 21.8524C2.623 21.8746 2.63103 21.8966 2.63955 21.9186C2.64811 21.9404 2.65713 21.9621 2.66662 21.9836C2.67615 22.0051 2.68616 22.0264 2.69665 22.0475C2.70714 22.0685 2.71812 22.0893 2.72958 22.1099C2.74104 22.1305 2.75296 22.1508 2.76535 22.1709C2.77771 22.1909 2.79053 22.2107 2.80381 22.2302C2.8171 22.2497 2.83083 22.2689 2.84501 22.2878C2.8592 22.3067 2.87379 22.3253 2.88879 22.3436C2.9038 22.3618 2.91923 22.3797 2.9351 22.3973C2.95093 22.4149 2.96715 22.4321 2.98376 22.449C3.00042 22.4659 3.01743 22.4824 3.03479 22.4986C3.05216 22.5147 3.06991 22.5304 3.08803 22.5458C3.10615 22.5611 3.12459 22.576 3.14336 22.5906C3.16216 22.6052 3.18128 22.6193 3.20073 22.6331C3.22017 22.6468 3.23992 22.66 3.25997 22.6729C3.27999 22.6857 3.30032 22.6982 3.32094 22.7101C3.34157 22.7221 3.36245 22.7336 3.38358 22.7447C3.40474 22.7557 3.42612 22.7663 3.44771 22.7764C3.46935 22.7865 3.49121 22.7962 3.5133 22.8054C3.53536 22.8145 3.55762 22.8232 3.58007 22.8314C3.60256 22.8396 3.62521 22.8472 3.64802 22.8545C3.67083 22.8617 3.69381 22.8684 3.71694 22.8746C3.74007 22.8807 3.76333 22.8864 3.78672 22.8916C3.8101 22.8968 3.83359 22.9014 3.85719 22.9056C3.88079 22.9098 3.90448 22.9134 3.92826 22.9165C5.61786 23.2245 47.7607 21.8785 47.7607 21.8785L48.1968 20.3576L10.9397 20.9698L13.1978 15.3956L16.1098 15.3956Z"   fill="#E7211A" >
</path>
<path d="M28.0615 12.3157L18.1652 11.9355L15.3466 19.8442L19.3954 19.8823L20.3064 17.7112L22.2529 19.8823L25.1105 19.8442L25.5854 18.4868L24.1566 18.4488L23.2067 17.5173L26.1422 17.4906L28.0615 12.3157ZM24.4759 15.2891L21.1434 15.2511L21.739 14.0116L24.9937 14.0495L24.4759 15.2891ZM39.1217 12.6922L28.9997 12.3423L26.2239 19.6693L36.2642 19.6313L37.1518 17.4716L31.3433 17.4716L32.5852 14.4754L38.3665 14.4374L39.1217 12.6922ZM40.1145 12.6389L37.4555 19.5933L48.4883 19.5933L49.2436 17.4222L42.972 17.4222L44.0426 14.5401L50.291 14.5401L50.7541 12.9507L40.1145 12.6389Z"   fill="#E7211A" >
</path>
</svg>
