<?xml version="1.0" standalone="no"?><!DOCTYPE svg PUBLIC "-//W3C//DTD SVG 1.1//EN" "http://www.w3.org/Graphics/SVG/1.1/DTD/svg11.dtd"><svg t="1748201797471" class="icon" viewBox="0 0 1325 1024" version="1.1" xmlns="http://www.w3.org/2000/svg" p-id="6371" xmlns:xlink="http://www.w3.org/1999/xlink" width="258.7890625" height="200"><path d="M993.330016 363.226984L926.611004 565.743249h265.366141l17.647037-61.15123-145.234172-1.038061 22.271127-81.818081 150.990692-1.226799 17.269561-48.033914-261.402636-9.436919zM720.319971 352.468897l-68.13455 214.68989h245.359874l20.572482-62.566768-130.040733-5.190305 21.044327-81.534974h139.477652l19.345683-57.187724-247.624735-8.210119z m-263.478758-9.436918l-71.437471 227.146622 101.729978 1.321169 20.195005-67.757073 43.88167 66.058427 83.233619 3.114183 4.057875-43.221085-45.108469-2.453599-10.003133-23.875403 70.021933-1.509907 46.14653-152.028753-242.717537-7.172058z m82.573035 57.470832l-11.513041 40.201272 82.856143-1.698646 10.28624-38.502626z m-99.276381-60.585015H348.033545l-7.172058 0.566215h-14.061008l-15.382177 5.001566-14.815961 5.945259-15.287808 7.172058-15.476546 7.832642-15.0047 9.436918-15.476546 10.286241-15.476546 11.51304-15.382176 13.966639-15.665285 14.438485-15.854022 16.703346-15.476546 17.930144-15.476546 20.478113-16.2315 22.648604-15.854022 24.064141-16.325869 26.800848-16.042761 28.782601-3.302921 6.228366-2.076122 5.945258-1.415538 5.001567-0.660584 5.284674V616.042024l1.321168 4.62409 2.264861 4.907197 2.453598 4.340983 3.114183 4.057874 4.057875 4.529721 3.963506 3.774768 4.529721 3.491659 5.379043 3.680398 5.945259 3.963506 5.75652 3.208552 1069.485946-23.02608 13.966639-48.411391-56.62151 1.415538-56.621509 1.226799-56.62151 0.660584-56.621509 0.849323-56.62151 1.226799-56.62151 1.2268-57.282093 1.226799-57.282094 0.754954-56.62151 0.849322-56.621509 1.038061-57.282094 1.415538-56.62151 0.660584-57.565201 1.038061-56.62151 1.038061-57.093355 0.849323-56.621509 1.226799 3.491659-9.908764 3.49166-9.436918 3.49166-9.436918 3.49166-10.47498 3.491659-9.436918 3.963506-9.436918 3.49166-10.097503 3.491659-10.097502 3.680399-9.436918 3.302921-9.436919 3.774767-10.097502 3.680398-10.286241 3.49166-9.436918 3.49166-10.097503 3.680398-9.436918 3.302921-10.003133h71.720579l30.481246-103.806101z" fill="#1890ff" p-id="6372"></path><path d="M1321.168556 459.200442l-10.38061-50.581881-16.13713-49.355083-22.365497-47.184591-28.310754-44.919731-33.50106-41.805548-37.747673-40.012533-43.032348-35.765921-47.184591-33.312321-51.148097-29.160077-54.545387-25.951526-57.659571-21.421804-60.585015-17.080822-63.227352-12.456732-66.058428-7.455166-67.285227-2.736706-67.568335 2.831075-65.586582 7.455166-63.227352 12.456732-60.868123 17.175191-57.659571 21.421805-54.356649 25.951525-51.053727 29.254446-47.184592 33.217953-42.560501 35.954658-37.747673 39.918165-33.784167 41.994286-27.933278 45.297207-22.648604 47.184592-16.137131 49.260713-10.28624 50.77062L0 512.707769l3.49166 52.469265 10.38061 50.487513 16.231499 48.977606 22.554235 47.184591 28.310755 44.542254 33.784167 42.277394 37.747673 38.880103 42.560501 36.237766 47.184592 33.217953 51.053727 29.348815 54.451019 25.668418 57.65957 21.421804 60.868123 17.458299 63.227352 12.173625 65.492213 8.11575 67.285227 2.831075 67.379597-2.925445 66.058427-8.02138 63.227353-12.267994 60.585015-17.458299 57.65957-21.421804 54.451019-25.762787 51.336835-29.443185 46.712745-33.217952 43.126717-36.237766 37.747673-38.974473 33.50106-42.371763 28.310755-44.542254 22.459865-47.184591 16.325869-48.977606 10.28624-50.581882 3.397291-52.469265zM358.602894 853.852364l-15.476546-18.024514-14.438485-19.817528-13.87227-20.478113-9.436918-15.948392 47.656437-8.02138 9.436918-0.943692 27.461432-4.340983 9.436919-0.471845 37.747673-4.71846h5.75652v5.095936h1.038061c6.700212 24.819095 23.592296 81.629343 48.883236 122.679938l2.35923 3.869136a301.3208 301.3208 0 0 0-66.058428 26.51774l-19.534421-15.382176-17.552668-15.193439-16.986452-15.948392z m152.123122 23.214819a493.645194 493.645194 0 0 1-44.353516-109.940098h1.2268l-2.925445-6.228366v-2.170491l78.137683-5.945259h12.456732l12.362363-0.849322 73.513593-1.509907h7.077689v121.17003a704.560317 704.560317 0 0 0-132.116856 15.476546l-3.114183-5.473412z m101.446871 110.78942l-19.62879-11.607409-18.873836-14.627224-8.776334-8.870703-17.647037-19.723159-8.493227-10.758087-10.946825-16.608976a702.106718 702.106718 0 0 1 120.320708-13.400424v100.786287h-23.875403z m243.849968-220.54078a928.687126 928.687126 0 0 1-38.785734 99.653857L807.045249 887.542162a554.513317 554.513317 0 0 0-132.116855-16.986453h-6.039628V749.763155h33.312321l100.314442 4.057875 56.149663 4.529721-3.019814 8.493227z m-28.310755 125.794121l6.228366-11.041195 1.415538-3.302921a888.485854 888.485854 0 0 0 42.937978-111.355635h1.321169l0.943692-6.228366 42.749239 4.812828h8.398857l27.838909 4.529721 8.870703 0.754953 35.671551 5.850889 10.946826 1.793015-10.663718 18.873836-15.382177 22.742973-16.042761 21.138697-16.420238 19.534421-17.930144 17.930145-17.175191 16.986453-18.401991 15.0047-10.38061 7.832642a381.345867 381.345867 0 0 0-65.303474-25.857156z m-158.728965 99.936964V891.694406h5.001567a546.680675 546.680675 0 0 1 121.641876 15.759654l-6.605843 10.569348-16.608976 21.704912-9.436918 10.286241-19.440052 17.835775-20.949958 14.249747-22.459866 10.286241-3.114183 0.849322zM167.977145 810.536909l7.643904-2.453599 67.662704-16.797714 17.363929-3.208552 22.931712-4.71846 7.455165 13.306055 18.873837 31.14183 22.176757 30.575616 25.574049 28.310754 14.249746 14.249747 30.764354 26.423371 5.75652 4.246613a158.257119 158.257119 0 0 0-22.176758 18.873837l-22.365496-8.11575-24.630357-10.569348-23.969772-10.946826-22.931711-12.079255-21.98802-12.551101-21.988019-13.211686-20.100636-13.306054-19.911898-14.815962-18.873836-15.193439-18.873837-15.570915-11.324302-11.041194z m259.420883 134.098608l11.135563 7.738273 38.785734 22.742973 8.681965 4.340983-17.552668-3.963506-26.800848-6.983319-26.329002-8.021381-5.567781-1.981753a163.447424 163.447424 0 0 1 17.26956-13.87227z m58.792001 9.436919l-19.817529-11.229933-17.363929-11.041194a302.736338 302.736338 0 0 1 56.621509-20.949959l3.114183 5.473413 16.986453 24.25288 6.417104 8.304488 13.777901 15.570915 15.854023 15.193438 10.852456 8.870703-23.592296-7.738273-21.610543-8.02138-20.572481-8.681965z m274.70869 25.479679l9.436918-7.832642 15.759654-16.042761 5.850889-7.738273 7.077689-8.493227 5.190305-7.832642 6.322735-8.493226 4.529721-8.304488 1.793014-2.736707a382.195189 382.195189 0 0 1 56.62151 21.138697l-26.61211 16.514607-18.873836 10.286241-20.006267 8.870703-20.006267 7.360797-19.817528 6.511473-16.420238 4.62409z m91.821215-9.436918l30.858722-18.873837 10.38061-6.983319a230.638282 230.638282 0 0 1 21.893651 14.344115l-31.14183 9.436919-52.469266 13.211685z m90.877522-63.51046l29.348816-28.87697 13.494793-16.325869 13.589163-17.552668 13.7779-19.440051 13.022947-21.044328L1038.061008 783.736061l32.840476 6.417105 17.458299 3.774767 8.587595 1.604276 68.417657 18.024514-11.041194 10.38061-18.873836 16.13713-38.974473 29.631924-20.383743 13.494793-21.799281 13.306054-21.799282 12.456732-23.02608 12.079256-23.403557 10.946825-24.347249 10.191872-21.610543 8.115749a231.959451 231.959451 0 0 0-26.423371-18.873836z m4.71846-751.933647l16.514607 18.873837 15.665284 18.873836 7.266427 9.436919 20.006267 30.292507 8.681964 15.0047-93.142383 13.683532h-10.286241l-8.965072 1.226799-19.534421 1.698645-5.379043 0.754954-4.529721-17.269561-6.700212-20.572481-17.458299-47.184592-3.869136-8.115749-3.49166-9.436919-4.152244-7.455165-3.869136-8.210119-8.304489-15.665284-1.226799-1.981753 56.62151-20.195005 10.286241-5.190305 17.647037 14.627223z m-115.224772-84.932264l27.65017 13.966639 10.003134 6.228366-19.440052 7.643904-3.208552 1.415538-28.310755 8.493226-6.605843 1.509907-7.266427-11.135564-24.630357-31.047461-20.76122-20.949958-7.832642-6.511474 15.0047 4.529721 37.747673 13.306055z m-68.417658 73.324855l17.647037-2.925445 22.082389-4.529721 10.758087 18.873837 15.099069 33.40669 3.963506 7.927012 7.172058 18.024514 3.302921 9.436918 2.925445 10.663718 3.302921 9.436918 7.643904 25.290941-18.873837 1.604276-86.725278 5.284674-84.177311 1.509907V149.008939h32.557368z m147.687771-76.344669l-19.723159 12.928578-8.587596-5.662151-5.75652-4.340982-36.615243-20.949959-19.534421-9.436918-5.850889-1.793015-4.152244-2.170491 30.0094 5.75652 18.873837 4.812829 8.870703 1.604276 47.184591 14.627223zM729.851258 48.694498l8.587596 6.417105 16.608976 14.532854 24.441618 27.555801 11.324302 16.420238-8.304488 1.887383-23.686665 3.963506-8.210119 1.698645-33.689798 3.869137-48.411391 2.453599V27.083955h3.302922l8.398857 1.038061 8.11575 1.604277 8.493226 2.453598 8.304488 3.019814 8.210119 3.963506zM1151.304027 217.898443l-8.304488 2.642337-34.916597 8.870703-9.436919 1.698645-17.930144 4.057875-9.436919 1.793014-9.436918 2.264861-18.873836 3.39729-6.039628 1.415538-18.118883-31.708045-7.266427-10.003134-7.172058-11.135563-15.665284-20.76122-16.2315-19.817529-17.26956-18.873836-37.747673-35.199705-4.529721-3.680398 8.398857-5.662151 2.076122-1.038061 7.738273-5.75652 1.2268-0.566216 10.003133-8.776334 35.76592 14.061009 36.520874 16.986453 35.577182 18.873836 32.934844 20.289374 31.708046 22.365497 29.065708 24.15851 27.083955 24.347249z m-675.966454 12.739839l4.152244-10.663717 3.114183-9.436919 10.758086-27.461432 15.665285-33.217952 11.041194-18.873837 45.863423 9.436919 34.161644 4.52972 8.681965 0.660585 8.587595 1.038061 30.575615 1.604276v127.587135h-19.628789l-24.441619-0.849323-72.947378-2.547968-66.530274-5.190305z m-11.135564-117.77274l35.954659 12.267994-22.271127 44.259147-15.570916 37.747673-2.831075 9.436918-3.869137 10.286241-10.28624 31.613676-1.887384 6.98332-43.976039-4.62409-9.436918-1.509907-18.307622-2.170492-66.530274-10.28624 3.397291-6.888951 14.438485-23.686665 14.721592-21.516173 15.948392-20.100636 16.608976-18.118883 8.870704-8.681965 27.367062-25.102202 10.47498-8.021381 9.436918-7.927011 9.436918-6.794581z m184.114275 14.721593l-35.105336-1.604276-8.115749-0.849323-7.927012-1.321168-8.02138-0.660585-55.300341-10.003133-1.981753-0.660584 10.663718-14.721593 6.88895-8.493226 15.099069-16.608976 15.476546-13.211686 15.382177-11.229933 8.870703-4.246613 7.266427-4.152244 16.797715-6.700212 8.304488-2.26486L648.316284 28.782601zM564.988296 43.88167L537.904341 70.871256l-8.965073 12.173625-5.473412 6.039627-12.079256 18.024514-25.196571-8.398857-28.310755-12.267994 8.304488-5.473412 9.436918-4.718459 7.266427-4.529721 9.436918-4.057875 8.587596-4.62409 26.140264-11.890517 28.310754-9.436918 19.440052-5.001567z m-63.793567-4.812828l-50.86499 27.272693-14.061008 9.436919-6.039628-3.49166-8.681964-4.907198-9.436919-6.133997 31.802415-9.908764 42.277394-10.191871 20.855589-4.057875z m-84.932265 50.581881l-33.029214 26.329002-9.436918 8.965073-17.930145 18.118883-26.51774 30.292507-23.969772 33.972906-15.287808 25.196572-5.379043 9.436918-33.689798-6.228366-80.025067-19.534421-15.570915-5.001566 15.665284-15.193439 13.400424-10.946825 12.928578-11.324302 28.310755-21.138697 14.721592-10.191872 14.815962-9.436918 47.184591-27.555801 16.797715-8.210119 51.714312-22.648604 15.193438-5.284674h1.038061l9.436918 7.360796zM24.25288 454.481983l2.925445-17.835775 3.774767-17.269561 16.514607-51.525573 15.759653-33.123583 8.304488-15.854023 19.440052-31.424938 22.554235-30.0094 12.456732-14.815962 10.852456-12.173624 24.819095 6.133997 36.709612 8.870703 76.061561 15.665284-22.742973 52.469266-5.001567 15.099069h22.459866l11.229932-32.462999 3.680399-7.832642 2.736706-7.172058 8.210119-16.608976 62.755506 10.569348 79.741959 10.758087-7.172058 28.310755v2.925445l-3.208552 11.135563 23.592296 0.849323v-4.246613l8.210119-37.747673 132.116855 9.436918 56.62151 1.226799v26.706479l0.849323 4.718459h6.228366l0.849322-0.660584 11.229933-2.170492 1.698645-3.586028v-24.913465h34.161644l64.171045-1.793014 97.577734-7.266427 8.776334 39.446318 21.138697-0.849323-8.681965-36.237766-0.471846-4.340982 50.86499-5.662151 9.436918-1.604276 9.436918-1.13243 72.098056-11.796148 10.946825 23.592296 9.436918 22.648603 5.75652 17.741407 4.246614-2.35923h1.415537l15.09907-3.680398-13.683532-32.085522-2.642337-7.738273-10.946825-21.98802 78.420791-16.13713 63.41609-16.042761 7.360796 7.738273 22.459866 28.310755 20.289374 29.065708 18.118883 30.292508 15.099069 30.764353 12.079256 32.274261 9.436918 32.746106 6.133997 33.50106 3.114183 29.443185h-50.393144v22.648604h51.903051v22.554234l-3.963506 38.974473-3.49166 19.345682-4.907197 18.873837-5.473413 18.873836-6.039627 18.118883-7.360797 18.401991-8.493226 17.552668-8.965072 17.458299-20.85559 34.53912-24.819095 32.557368-13.022947 15.854023-12.079255 13.683531-24.25288-6.605842-100.031334-22.176758-9.436918-1.2268-3.019814-0.660584 7.832642-15.665284 1.793015-5.284674 3.114183-5.756521 18.873836-47.939544 5.284675-18.401991-20.289375-2.453599-3.39729 10.38061-8.870703 22.459866-1.793015 5.567782-20.949958 46.335268-3.49166 6.511474-43.221086-7.360796-8.870703-0.754954-9.436918-1.698645-28.310755-3.774767-9.436918-1.793015-37.747673-4.529721h-3.963506l7.266427-30.386876 6.511474-41.61681h-22.271127l-1.415538 17.458299-2.170491 8.587595-6.888951 34.63349-2.26486 8.965073-47.184591-4.246613-148.820201-6.417105V666.718275h-20.85559v59.546954l-58.508893 0.754953-50.110036 2.170492-82.101188 5.850889-0.754954-4.62409-6.039628-25.857156-5.473412-37.747673h-21.610543l3.869136 28.310755 1.132431 3.774767 2.26486 13.777901 1.038061 4.246613 1.604276 8.398857 3.019814 12.267994-71.343102 9.436918-55.866556 9.436918-9.436918 1.321169-5.567782 1.13243-6.417105-12.739839-11.135563-27.461433-1.981753-6.605842-12.834209-33.595429-2.359229-10.003134h-11.229933l-0.849323 0.660585-9.436918 0.471845 23.875403 64.73726 10.191872 22.931711 2.736706 4.812828-29.915031 6.888951-9.436918 1.981753-33.689798 9.436918-9.436918 1.793014-25.857156 7.455166-21.799282 7.172058-12.834208-13.306055-13.306055-16.13713-12.456732-15.759654-12.267994-17.175191-10.946825-16.608976-10.286241-17.458299-9.436918-17.458299-8.870703-18.873836-7.172058-18.401991-6.700212-18.873836-5.75652-18.873837-4.62409-18.873836-3.586029-19.534421-2.547968-19.817529-1.698645-19.817528-0.849323-20.006267v-2.170491h50.298774v-22.648604H21.421804z" fill="#1890ff" p-id="6373"></path></svg>