<?xml version="1.0" standalone="no"?><!DOCTYPE svg PUBLIC "-//W3C//DTD SVG 1.1//EN" "http://www.w3.org/Graphics/SVG/1.1/DTD/svg11.dtd"><svg t="1634618298764" class="icon" viewBox="0 0 1024 1024" version="1.1" xmlns="http://www.w3.org/2000/svg" p-id="5488" width="128" height="128" xmlns:xlink="http://www.w3.org/1999/xlink"><defs><style type="text/css"></style></defs><path d="M609.555 902.043c-13.725 0.001-26.804-7.476-33.571-20.353l-34.935-66.459a306.923 306.923 0 0 1-58.066-0.061l-34.966 66.521a37.887 37.887 0 0 1-47.882 17.552l-77.863-31.458a37.888 37.888 0 0 1-22.247-45.886l21.167-72.521a305.362 305.362 0 0 1-44.334-43.685l-72.229 22.457a37.894 37.894 0 0 1-46.268-21.44l-32.815-77.308a37.89 37.89 0 0 1 16.717-48.178l66.47-36.435a308.288 308.288 0 0 1-1.849-33.667c0-9.438 0.442-18.921 1.318-28.369l-67.106-35.274a37.891 37.891 0 0 1-17.555-47.878L155 321.735a37.887 37.887 0 0 1 45.889-22.246l72.625 21.198a305.344 305.344 0 0 1 43.551-44.451l-22.431-72.145a37.891 37.891 0 0 1 21.441-46.268l77.308-32.815a37.887 37.887 0 0 1 48.177 16.717l36.125 65.905a307.922 307.922 0 0 1 68.672-0.074l36.085-65.831a37.889 37.889 0 0 1 48.179-16.716l77.304 32.814a37.89 37.89 0 0 1 21.443 46.268l-22.29 71.692a305.403 305.403 0 0 1 43.96 44.743l72.076-21.037a37.888 37.888 0 0 1 45.888 22.248l31.46 77.865a37.894 37.894 0 0 1-17.553 47.878l-66.461 34.936a307.563 307.563 0 0 1 1.35 28.709c0 11.345-0.634 22.724-1.89 34.018l65.831 36.083a37.89 37.89 0 0 1 16.715 48.184l-32.812 77.301a37.89 37.89 0 0 1-46.267 21.442l-71.692-22.29a305.459 305.459 0 0 1-44.744 43.96l21.038 72.077a37.888 37.888 0 0 1-22.249 45.888l-77.864 31.459a38.165 38.165 0 0 1-14.309 2.796z m-35.191-152.387l45.471 86.504 40.968-16.552-27.388-93.835 17.87-12.297c23.731-16.329 44.241-36.479 60.96-59.893l12.606-17.654 93.334 29.02 17.265-40.674-85.688-46.969 3.936-21.327a247.749 247.749 0 0 0 4.1-44.855c0-13.55-1.132-27.22-3.365-40.631l-3.562-21.392 86.506-45.472-16.553-40.968-93.834 27.388-12.296-17.871c-16.33-23.731-36.48-44.24-59.894-60.959l-17.654-12.606 29.02-93.334-40.674-17.265-46.97 85.688-21.327-3.936c-29.65-5.471-60.574-5.442-90.257 0.105l-21.37 3.994-47.058-85.852-40.673 17.265 29.128 93.685-17.577 12.617a246.108 246.108 0 0 0-59.502 60.746l-12.293 17.893-94.415-27.558-16.552 40.969 87.105 45.786-3.53 21.368a248.19 248.19 0 0 0-3.316 40.34c0 14.931 1.36 29.921 4.042 44.556l3.904 21.304-86.278 47.292 17.265 40.674 93.905-29.196 12.603 17.678c16.611 23.3 36.989 43.386 60.569 59.699l17.792 12.309-27.486 94.17 40.969 16.552 45.549-86.653 21.434 3.617a248.147 248.147 0 0 0 41.19 3.457c13.548 0 27.219-1.132 40.634-3.364l21.387-3.563z" p-id="5489"></path><path d="M512 613.906c-56.191 0-101.906-45.715-101.906-101.906S455.809 410.094 512 410.094 613.906 455.809 613.906 512 568.191 613.906 512 613.906z m0-143.812c-23.107 0-41.906 18.799-41.906 41.906s18.799 41.906 41.906 41.906 41.906-18.799 41.906-41.906-18.799-41.906-41.906-41.906z" p-id="5490"></path></svg>
